<?xml version="1.0" encoding="iso-8859-1"?>
<!-- Generator: Adobe Illustrator 18.1.1, SVG Export Plug-In . SVG Version: 6.00 Build 0)  -->
<svg version="1.1" id="Capa_1" xmlns="http://www.w3.org/2000/svg" xmlns:xlink="http://www.w3.org/1999/xlink" x="0px" y="0px"
	 viewBox="0 0 41.873 41.873" style="enable-background:new 0 0 41.873 41.873;" xml:space="preserve">
<g>
	<path style="fill:#030104;" d="M40.524,0.972c-1.297-1.296-3.396-1.296-4.693,0.002l-7.893,8.149c0,0-3.058-1.021-6.642-2.153
		c0.593-1.734,0.051-2.821-0.99-3.391c-1.219-0.666-2.668-0.367-3.962,1.861c-2.769-0.822-5.162-1.469-5.968-1.499
		c-2.307-0.09-6.104,4.254-5.719,5.134c0.385,0.878,16.147,7.413,16.147,7.413L10.558,27.071c-0.252,0.251-0.485,0.504-0.69,0.754
		c0,0-5.438-2.363-6.62-3.038c-1.183-0.676-2.872,2.869-2.872,2.869l7.358,4.551c-0.035,0.031-0.069,0.061-0.104,0.095
		c-0.839,0.838-1.147,1.891-0.691,2.349c0.458,0.456,1.51,0.147,2.35-0.692c0.052-0.049,0.094-0.104,0.142-0.155l0.515,0.513
		l5.062,7.556c0,0,3.617-0.618,2.663-2.661c-0.956-2.043-3.693-7.896-3.693-7.896c0.158-0.109,0.312-0.23,0.451-0.374l10.776-10.435
		l0.169,0.172c0,0,7.44,15.723,8.423,16.709c0.981,0.985,5.526-2.709,5.306-5.306c-0.078-0.903-0.872-3.452-1.872-6.395
		c0.226-0.148,0.45-0.304,0.67-0.479c2.178-1.705,2.257-3.244,1.371-4.371c-0.78-0.995-2.047-1.335-3.829-0.229
		c-1.412-3.923-2.692-7.306-2.692-7.306l-0.05-0.052l7.827-7.58C41.821,4.372,41.821,2.27,40.524,0.972z"/>
</g>
<g>
</g>
<g>
</g>
<g>
</g>
<g>
</g>
<g>
</g>
<g>
</g>
<g>
</g>
<g>
</g>
<g>
</g>
<g>
</g>
<g>
</g>
<g>
</g>
<g>
</g>
<g>
</g>
<g>
</g>
</svg>
